<svg xmlns="http://www.w3.org/2000/svg" xmlns:xlink="http://www.w3.org/1999/xlink" width="500" zoomAndPan="magnify" viewBox="0 0 375 374.999991" height="500" preserveAspectRatio="xMidYMid meet" version="1.0"><defs><g/><clipPath id="d2ae5562ac"><path d="M 34.089844 0 L 340.839844 0 L 340.839844 375 L 34.089844 375 Z M 34.089844 0 " clip-rule="nonzero"/></clipPath><clipPath id="62fe071b71"><path d="M 64.171875 103.527344 C 61.238281 101.792969 57.769531 100.792969 54.101562 100.792969 C 43.027344 100.792969 34.089844 109.730469 34.089844 120.800781 C 34.089844 129.539062 39.695312 136.941406 47.429688 139.679688 L 47.429688 254.199219 C 47.429688 256.132812 48.296875 258 49.765625 259.265625 L 183.160156 372.652344 C 185.628906 374.785156 189.296875 374.785156 191.832031 372.652344 L 244.121094 328.164062 C 247.054688 329.898438 250.523438 330.898438 254.191406 330.898438 C 265.265625 330.898438 274.203125 321.960938 274.203125 310.890625 C 274.203125 308.355469 273.734375 305.953125 272.867188 303.753906 L 310.820312 271.472656 C 313.753906 273.207031 317.222656 274.207031 320.890625 274.207031 C 331.960938 274.207031 340.898438 265.269531 340.898438 254.199219 C 340.898438 245.460938 335.296875 238.058594 327.558594 235.320312 L 327.558594 120.800781 C 327.558594 118.867188 326.691406 117 325.226562 115.734375 L 272.933594 71.246094 C 273.800781 69.046875 274.269531 66.644531 274.269531 64.109375 C 274.269531 53.039062 265.332031 44.101562 254.257812 44.101562 C 250.589844 44.101562 247.191406 45.101562 244.1875 46.835938 L 191.832031 2.347656 C 189.363281 0.214844 185.695312 0.214844 183.160156 2.347656 Z M 204.503906 251.460938 C 200.96875 257.132812 194.699219 260.867188 187.5625 260.867188 C 185.496094 260.867188 183.492188 260.535156 181.558594 259.933594 L 165.285156 281.609375 C 166.753906 284.34375 167.550781 287.546875 167.550781 290.8125 C 167.550781 296.21875 165.417969 301.152344 161.882812 304.753906 L 187.5625 353.242188 L 232.847656 267.671875 C 230.046875 264.667969 228.179688 260.800781 227.714844 256.53125 L 204.503906 251.394531 Z M 302.082031 260.867188 L 266.464844 260.867188 C 263.730469 268.605469 256.328125 274.207031 247.589844 274.207031 C 246.589844 274.207031 245.589844 274.207031 244.65625 274.007812 L 209.707031 340.039062 L 235.585938 318.027344 C 234.71875 315.824219 234.25 313.425781 234.25 310.890625 C 234.25 299.820312 243.1875 290.882812 254.257812 290.882812 C 257.929688 290.882812 261.328125 291.882812 264.332031 293.617188 L 302.28125 261.335938 C 302.28125 261.335938 302.148438 261 302.082031 260.867188 Z M 120.597656 206.242188 L 111.394531 217.246094 C 113.195312 220.25 114.195312 223.714844 114.195312 227.453125 C 114.195312 238.523438 105.257812 247.460938 94.183594 247.460938 C 89.714844 247.460938 85.515625 245.992188 82.179688 243.460938 L 65.238281 254.796875 L 165.417969 339.96875 L 149.945312 310.691406 C 149.144531 310.757812 148.34375 310.824219 147.542969 310.824219 C 136.472656 310.824219 127.535156 301.886719 127.535156 290.816406 C 127.535156 285.8125 129.402344 281.210938 132.46875 277.675781 L 121.664062 257.265625 C 121.132812 256.332031 120.863281 255.265625 120.863281 254.128906 L 120.863281 206.308594 L 120.597656 206.175781 Z M 254.257812 304.21875 C 257.929688 304.21875 260.929688 307.222656 260.929688 310.890625 C 260.929688 314.558594 257.929688 317.558594 254.257812 317.558594 C 250.589844 317.558594 247.589844 314.558594 247.589844 310.890625 C 247.589844 307.222656 250.589844 304.21875 254.257812 304.21875 Z M 147.542969 284.210938 C 151.210938 284.210938 154.214844 287.210938 154.214844 290.882812 C 154.214844 294.550781 151.210938 297.550781 147.542969 297.550781 C 143.875 297.550781 140.875 294.550781 140.875 290.882812 C 140.875 287.210938 143.875 284.210938 147.542969 284.210938 Z M 180.757812 132.941406 L 144.609375 177.09375 C 146.476562 180.097656 147.542969 183.699219 147.542969 187.5 C 147.542969 196.238281 141.941406 203.640625 134.203125 206.375 L 134.203125 252.53125 L 144.074219 271.136719 C 145.207031 270.9375 146.34375 270.804688 147.542969 270.804688 C 150.34375 270.804688 153.078125 271.40625 155.480469 272.472656 L 170.886719 251.929688 C 168.753906 248.726562 167.550781 244.925781 167.550781 240.859375 C 167.550781 232.121094 173.15625 224.71875 180.890625 221.984375 L 180.890625 133.007812 L 180.757812 133.007812 Z M 320.957031 247.527344 C 324.625 247.527344 327.625 250.527344 327.625 254.199219 C 327.625 257.867188 324.625 260.867188 320.957031 260.867188 C 317.289062 260.867188 314.289062 257.867188 314.289062 254.199219 C 314.289062 250.527344 317.289062 247.527344 320.957031 247.527344 Z M 247.589844 247.527344 C 251.257812 247.527344 254.257812 250.527344 254.257812 254.199219 C 254.257812 257.867188 251.257812 260.867188 247.589844 260.867188 C 243.921875 260.867188 240.917969 257.867188 240.917969 254.199219 C 240.917969 250.527344 243.921875 247.527344 247.589844 247.527344 Z M 187.5625 234.1875 C 191.230469 234.1875 194.230469 237.191406 194.230469 240.859375 C 194.230469 244.527344 191.230469 247.527344 187.5625 247.527344 C 183.894531 247.527344 180.890625 244.527344 180.890625 240.859375 C 180.890625 237.191406 183.894531 234.1875 187.5625 234.1875 Z M 257.0625 205.109375 C 256.195312 205.574219 255.261719 206.042969 254.257812 206.375 L 254.257812 235.320312 C 259.929688 237.324219 264.464844 241.859375 266.464844 247.527344 L 302.082031 247.527344 C 302.214844 247.128906 302.347656 246.792969 302.480469 246.460938 Z M 237.917969 204.976562 L 206.105469 233.253906 C 206.769531 234.855469 207.238281 236.589844 207.4375 238.390625 L 230.648438 243.527344 C 233.050781 239.722656 236.652344 236.789062 240.917969 235.253906 L 240.917969 206.308594 C 239.851562 205.910156 238.851562 205.507812 237.917969 204.976562 Z M 63.570312 138.410156 C 62.703125 138.878906 61.769531 139.34375 60.769531 139.679688 L 60.769531 241.726562 L 74.710938 232.453125 C 74.308594 230.851562 74.109375 229.253906 74.109375 227.519531 C 74.109375 216.445312 83.046875 207.507812 94.117188 207.507812 C 96.585938 207.507812 98.921875 207.976562 101.054688 208.777344 L 110.257812 197.769531 C 108.457031 194.769531 107.457031 191.300781 107.457031 187.566406 C 107.457031 184.832031 107.992188 182.164062 108.992188 179.828125 L 63.570312 138.476562 Z M 294.210938 106.863281 L 294.210938 121.9375 C 301.949219 124.671875 307.550781 132.074219 307.550781 140.8125 C 307.550781 151.882812 298.613281 160.820312 287.542969 160.820312 C 285.007812 160.820312 282.539062 160.355469 280.339844 159.488281 L 264.863281 177.5625 C 266.53125 180.496094 267.53125 183.898438 267.53125 187.566406 C 267.53125 190.300781 267 192.96875 266 195.304688 L 311.417969 236.65625 C 312.285156 236.1875 313.21875 235.722656 314.21875 235.390625 L 314.21875 123.9375 L 294.210938 106.929688 Z M 94.117188 220.847656 C 97.785156 220.847656 100.789062 223.851562 100.789062 227.519531 C 100.789062 231.1875 97.785156 234.1875 94.117188 234.1875 C 90.449219 234.1875 87.449219 231.1875 87.449219 227.519531 C 87.449219 223.851562 90.449219 220.847656 94.117188 220.847656 Z M 206.035156 121.601562 C 203.902344 126.871094 199.566406 131.074219 194.164062 133.007812 L 194.164062 221.984375 C 195.230469 222.382812 196.234375 222.78125 197.167969 223.316406 L 228.980469 195.035156 C 228.046875 192.703125 227.515625 190.167969 227.515625 187.5 C 227.515625 178.761719 233.117188 171.359375 240.851562 168.625 L 240.851562 126.605469 L 206.039062 121.601562 Z M 127.46875 180.832031 C 131.136719 180.832031 134.136719 183.832031 134.136719 187.5 C 134.136719 191.167969 131.136719 194.167969 127.46875 194.167969 C 123.800781 194.167969 120.796875 191.167969 120.796875 187.5 C 120.796875 183.832031 123.800781 180.832031 127.46875 180.832031 Z M 247.523438 180.832031 C 251.191406 180.832031 254.191406 183.832031 254.191406 187.5 C 254.191406 191.167969 251.191406 194.167969 247.523438 194.167969 C 243.855469 194.167969 240.851562 191.167969 240.851562 187.5 C 240.851562 183.832031 243.855469 180.832031 247.523438 180.832031 Z M 109.125 112.867188 L 92.183594 97.191406 L 72.777344 113.664062 C 73.640625 115.867188 74.109375 118.269531 74.109375 120.800781 C 74.109375 123.535156 73.574219 126.203125 72.574219 128.539062 L 117.996094 169.890625 C 118.863281 169.425781 119.796875 168.957031 120.796875 168.625 L 120.796875 139.679688 C 113.0625 136.941406 107.457031 129.539062 107.457031 120.800781 C 107.457031 118 108.058594 115.265625 109.125 112.867188 Z M 267.730469 138.34375 L 254.257812 131.609375 L 254.257812 168.625 C 254.257812 168.625 254.59375 168.757812 254.792969 168.824219 L 270.265625 150.75 C 268.597656 147.816406 267.597656 144.414062 267.597656 140.746094 C 267.597656 139.878906 267.597656 139.078125 267.730469 138.277344 Z M 170.355469 103.929688 L 154.214844 84.585938 L 142.207031 107.261719 C 145.476562 110.863281 147.476562 115.601562 147.476562 120.800781 C 147.476562 129.539062 141.875 136.941406 134.136719 139.679688 L 134.136719 168.625 L 134.269531 168.625 C 134.269531 168.625 170.421875 124.539062 170.421875 124.539062 C 168.554688 121.535156 167.484375 117.933594 167.484375 114.132812 C 167.484375 110.332031 168.488281 106.929688 170.289062 103.929688 Z M 287.609375 134.140625 C 291.277344 134.140625 294.277344 137.144531 294.277344 140.8125 C 294.277344 144.480469 291.277344 147.480469 287.609375 147.480469 C 283.941406 147.480469 280.9375 144.480469 280.9375 140.8125 C 280.9375 137.144531 283.941406 134.140625 287.609375 134.140625 Z M 127.535156 114.132812 C 131.203125 114.132812 134.203125 117.132812 134.203125 120.800781 C 134.203125 124.472656 131.203125 127.472656 127.535156 127.472656 C 123.867188 127.472656 120.863281 124.472656 120.863281 120.800781 C 120.863281 117.132812 123.867188 114.132812 127.535156 114.132812 Z M 54.167969 114.132812 C 57.835938 114.132812 60.835938 117.132812 60.835938 120.800781 C 60.835938 124.472656 57.835938 127.472656 54.167969 127.472656 C 50.5 127.472656 47.496094 124.472656 47.496094 120.800781 C 47.496094 117.132812 50.5 114.132812 54.167969 114.132812 Z M 235.585938 56.972656 L 209.707031 34.960938 L 252.457031 115.734375 L 273.667969 126.339844 C 275.734375 124.402344 278.136719 122.871094 280.871094 121.871094 L 280.871094 95.457031 L 264.265625 81.316406 C 261.328125 83.050781 257.859375 84.050781 254.191406 84.050781 C 243.121094 84.050781 234.183594 75.113281 234.183594 64.042969 C 234.183594 61.507812 234.648438 59.105469 235.515625 56.90625 Z M 194.230469 114.066406 C 194.230469 110.398438 191.230469 107.464844 187.5625 107.464844 C 183.894531 107.464844 180.890625 110.464844 180.890625 114.132812 C 180.890625 117.800781 183.894531 120.800781 187.5625 120.800781 C 191.230469 120.800781 194.164062 117.867188 194.230469 114.199219 Z M 161.015625 71.847656 L 180.625 95.390625 C 182.757812 94.589844 185.160156 94.125 187.5625 94.125 C 196.566406 94.125 204.167969 100.058594 206.703125 108.195312 L 235.585938 112.332031 L 187.5625 21.691406 Z M 130.46875 100.992188 L 165.417969 34.960938 L 102.523438 88.453125 L 118.261719 103.0625 C 121.066406 101.59375 124.199219 100.792969 127.535156 100.792969 C 128.535156 100.792969 129.535156 100.859375 130.46875 100.992188 Z M 254.257812 57.441406 C 257.929688 57.441406 260.929688 60.441406 260.929688 64.109375 C 260.929688 67.777344 257.929688 70.78125 254.257812 70.78125 C 250.589844 70.78125 247.589844 67.777344 247.589844 64.109375 C 247.589844 60.441406 250.589844 57.441406 254.257812 57.441406 Z M 254.257812 57.441406 " clip-rule="evenodd"/></clipPath><linearGradient x1="-2.539998" gradientTransform="matrix(6.669751, 0, 0, 6.669751, 34.090912, 0.74695)" y1="53.539997" x2="48.535608" gradientUnits="userSpaceOnUse" y2="2.464391" id="4d60c2fa49"><stop stop-opacity="1" stop-color="rgb(0%, 47.499084%, 48.599243%)" offset="0"/><stop stop-opacity="1" stop-color="rgb(0%, 47.499084%, 48.599243%)" offset="0.125"/><stop stop-opacity="1" stop-color="rgb(0%, 47.499084%, 48.599243%)" offset="0.1875"/><stop stop-opacity="1" stop-color="rgb(0.120544%, 47.40448%, 48.687744%)" offset="0.195312"/><stop stop-opacity="1" stop-color="rgb(0.576782%, 47.050476%, 49.023438%)" offset="0.199219"/><stop stop-opacity="1" stop-color="rgb(0.91095%, 46.792603%, 49.269104%)" offset="0.203125"/><stop stop-opacity="1" stop-color="rgb(1.245117%, 46.533203%, 49.514771%)" offset="0.207031"/><stop stop-opacity="1" stop-color="rgb(1.579285%, 46.27533%, 49.760437%)" offset="0.210937"/><stop stop-opacity="1" stop-color="rgb(1.911926%, 46.017456%, 50.006104%)" offset="0.214844"/><stop stop-opacity="1" stop-color="rgb(2.246094%, 45.759583%, 50.25177%)" offset="0.21875"/><stop stop-opacity="1" stop-color="rgb(2.580261%, 45.500183%, 50.497437%)" offset="0.222656"/><stop stop-opacity="1" stop-color="rgb(2.914429%, 45.24231%, 50.743103%)" offset="0.226562"/><stop stop-opacity="1" stop-color="rgb(3.24707%, 44.98291%, 50.987244%)" offset="0.230469"/><stop stop-opacity="1" stop-color="rgb(3.581238%, 44.725037%, 51.23291%)" offset="0.234375"/><stop stop-opacity="1" stop-color="rgb(3.915405%, 44.465637%, 51.478577%)" offset="0.238281"/><stop stop-opacity="1" stop-color="rgb(4.249573%, 44.207764%, 51.724243%)" offset="0.242187"/><stop stop-opacity="1" stop-color="rgb(4.58374%, 43.948364%, 51.96991%)" offset="0.246094"/><stop stop-opacity="1" stop-color="rgb(4.917908%, 43.690491%, 52.215576%)" offset="0.25"/><stop stop-opacity="1" stop-color="rgb(5.250549%, 43.431091%, 52.461243%)" offset="0.253906"/><stop stop-opacity="1" stop-color="rgb(5.584717%, 43.173218%, 52.706909%)" offset="0.257812"/><stop stop-opacity="1" stop-color="rgb(5.918884%, 42.913818%, 52.95105%)" offset="0.261719"/><stop stop-opacity="1" stop-color="rgb(6.253052%, 42.655945%, 53.196716%)" offset="0.265625"/><stop stop-opacity="1" stop-color="rgb(6.585693%, 42.396545%, 53.442383%)" offset="0.269531"/><stop stop-opacity="1" stop-color="rgb(6.919861%, 42.138672%, 53.688049%)" offset="0.273438"/><stop stop-opacity="1" stop-color="rgb(7.254028%, 41.879272%, 53.933716%)" offset="0.277344"/><stop stop-opacity="1" stop-color="rgb(7.588196%, 41.621399%, 54.179382%)" offset="0.28125"/><stop stop-opacity="1" stop-color="rgb(7.922363%, 41.362%, 54.425049%)" offset="0.285156"/><stop stop-opacity="1" stop-color="rgb(8.256531%, 41.104126%, 54.670715%)" offset="0.289062"/><stop stop-opacity="1" stop-color="rgb(8.589172%, 40.844727%, 54.916382%)" offset="0.292969"/><stop stop-opacity="1" stop-color="rgb(8.92334%, 40.586853%, 55.162048%)" offset="0.296875"/><stop stop-opacity="1" stop-color="rgb(9.257507%, 40.327454%, 55.406189%)" offset="0.300781"/><stop stop-opacity="1" stop-color="rgb(9.591675%, 40.06958%, 55.651855%)" offset="0.304688"/><stop stop-opacity="1" stop-color="rgb(9.87854%, 39.788818%, 55.85022%)" offset="0.308594"/><stop stop-opacity="1" stop-color="rgb(10.165405%, 39.508057%, 56.048584%)" offset="0.3125"/><stop stop-opacity="1" stop-color="rgb(9.980774%, 39.004517%, 55.767822%)" offset="0.316406"/><stop stop-opacity="1" stop-color="rgb(9.796143%, 38.502502%, 55.487061%)" offset="0.320312"/><stop stop-opacity="1" stop-color="rgb(9.611511%, 37.998962%, 55.206299%)" offset="0.324219"/><stop stop-opacity="1" stop-color="rgb(9.42688%, 37.495422%, 54.925537%)" offset="0.328125"/><stop stop-opacity="1" stop-color="rgb(9.242249%, 36.991882%, 54.644775%)" offset="0.332031"/><stop stop-opacity="1" stop-color="rgb(9.057617%, 36.489868%, 54.364014%)" offset="0.335938"/><stop stop-opacity="1" stop-color="rgb(8.872986%, 35.986328%, 54.083252%)" offset="0.339844"/><stop stop-opacity="1" stop-color="rgb(8.688354%, 35.482788%, 53.80249%)" offset="0.34375"/><stop stop-opacity="1" stop-color="rgb(8.503723%, 34.979248%, 53.521729%)" offset="0.347656"/><stop stop-opacity="1" stop-color="rgb(8.319092%, 34.477234%, 53.240967%)" offset="0.351562"/><stop stop-opacity="1" stop-color="rgb(8.13446%, 33.973694%, 52.960205%)" offset="0.355469"/><stop stop-opacity="1" stop-color="rgb(7.949829%, 33.470154%, 52.679443%)" offset="0.359375"/><stop stop-opacity="1" stop-color="rgb(7.765198%, 32.966614%, 52.398682%)" offset="0.363281"/><stop stop-opacity="1" stop-color="rgb(7.580566%, 32.4646%, 52.11792%)" offset="0.367187"/><stop stop-opacity="1" stop-color="rgb(7.395935%, 31.96106%, 51.837158%)" offset="0.371094"/><stop stop-opacity="1" stop-color="rgb(7.211304%, 31.45752%, 51.556396%)" offset="0.375"/><stop stop-opacity="1" stop-color="rgb(7.026672%, 30.953979%, 51.274109%)" offset="0.378906"/><stop stop-opacity="1" stop-color="rgb(6.842041%, 30.450439%, 50.993347%)" offset="0.382812"/><stop stop-opacity="1" stop-color="rgb(6.65741%, 29.946899%, 50.712585%)" offset="0.386719"/><stop stop-opacity="1" stop-color="rgb(6.472778%, 29.444885%, 50.431824%)" offset="0.390625"/><stop stop-opacity="1" stop-color="rgb(6.286621%, 28.941345%, 50.151062%)" offset="0.394531"/><stop stop-opacity="1" stop-color="rgb(6.10199%, 28.437805%, 49.8703%)" offset="0.398438"/><stop stop-opacity="1" stop-color="rgb(5.917358%, 27.934265%, 49.589539%)" offset="0.402344"/><stop stop-opacity="1" stop-color="rgb(5.732727%, 27.432251%, 49.308777%)" offset="0.40625"/><stop stop-opacity="1" stop-color="rgb(5.548096%, 26.928711%, 49.028015%)" offset="0.410156"/><stop stop-opacity="1" stop-color="rgb(5.363464%, 26.425171%, 48.747253%)" offset="0.414062"/><stop stop-opacity="1" stop-color="rgb(5.178833%, 25.921631%, 48.466492%)" offset="0.417969"/><stop stop-opacity="1" stop-color="rgb(4.994202%, 25.419617%, 48.18573%)" offset="0.421875"/><stop stop-opacity="1" stop-color="rgb(4.80957%, 24.916077%, 47.904968%)" offset="0.425781"/><stop stop-opacity="1" stop-color="rgb(4.624939%, 24.412537%, 47.624207%)" offset="0.429687"/><stop stop-opacity="1" stop-color="rgb(4.440308%, 23.908997%, 47.343445%)" offset="0.433594"/><stop stop-opacity="1" stop-color="rgb(4.255676%, 23.406982%, 47.062683%)" offset="0.4375"/><stop stop-opacity="1" stop-color="rgb(4.071045%, 22.903442%, 46.781921%)" offset="0.441406"/><stop stop-opacity="1" stop-color="rgb(3.886414%, 22.399902%, 46.50116%)" offset="0.445312"/><stop stop-opacity="1" stop-color="rgb(3.701782%, 21.896362%, 46.220398%)" offset="0.449219"/><stop stop-opacity="1" stop-color="rgb(3.517151%, 21.394348%, 45.939636%)" offset="0.453125"/><stop stop-opacity="1" stop-color="rgb(3.33252%, 20.890808%, 45.658875%)" offset="0.457031"/><stop stop-opacity="1" stop-color="rgb(3.147888%, 20.387268%, 45.378113%)" offset="0.460938"/><stop stop-opacity="1" stop-color="rgb(2.963257%, 19.883728%, 45.097351%)" offset="0.464844"/><stop stop-opacity="1" stop-color="rgb(2.778625%, 19.380188%, 44.816589%)" offset="0.46875"/><stop stop-opacity="1" stop-color="rgb(2.593994%, 18.876648%, 44.535828%)" offset="0.472656"/><stop stop-opacity="1" stop-color="rgb(2.409363%, 18.374634%, 44.255066%)" offset="0.476562"/><stop stop-opacity="1" stop-color="rgb(2.224731%, 17.871094%, 43.974304%)" offset="0.480469"/><stop stop-opacity="1" stop-color="rgb(2.0401%, 17.367554%, 43.693542%)" offset="0.484375"/><stop stop-opacity="1" stop-color="rgb(1.855469%, 16.864014%, 43.412781%)" offset="0.488281"/><stop stop-opacity="1" stop-color="rgb(1.670837%, 16.362%, 43.132019%)" offset="0.492187"/><stop stop-opacity="1" stop-color="rgb(1.48468%, 15.858459%, 42.851257%)" offset="0.496094"/><stop stop-opacity="1" stop-color="rgb(1.300049%, 15.354919%, 42.570496%)" offset="0.5"/><stop stop-opacity="1" stop-color="rgb(1.115417%, 14.851379%, 42.288208%)" offset="0.503906"/><stop stop-opacity="1" stop-color="rgb(0.930786%, 14.349365%, 42.007446%)" offset="0.507812"/><stop stop-opacity="1" stop-color="rgb(0.746155%, 13.845825%, 41.726685%)" offset="0.511719"/><stop stop-opacity="1" stop-color="rgb(0.561523%, 13.342285%, 41.445923%)" offset="0.515625"/><stop stop-opacity="1" stop-color="rgb(1.065063%, 13.700867%, 40.95459%)" offset="0.519531"/><stop stop-opacity="1" stop-color="rgb(1.568604%, 14.060974%, 40.463257%)" offset="0.523438"/><stop stop-opacity="1" stop-color="rgb(2.612305%, 15.098572%, 39.805603%)" offset="0.527344"/><stop stop-opacity="1" stop-color="rgb(3.657532%, 16.137695%, 39.149475%)" offset="0.53125"/><stop stop-opacity="1" stop-color="rgb(4.701233%, 17.175293%, 38.491821%)" offset="0.535156"/><stop stop-opacity="1" stop-color="rgb(5.74646%, 18.212891%, 37.835693%)" offset="0.539062"/><stop stop-opacity="1" stop-color="rgb(6.790161%, 19.250488%, 37.17804%)" offset="0.542969"/><stop stop-opacity="1" stop-color="rgb(7.835388%, 20.289612%, 36.521912%)" offset="0.546875"/><stop stop-opacity="1" stop-color="rgb(8.879089%, 21.327209%, 35.864258%)" offset="0.550781"/><stop stop-opacity="1" stop-color="rgb(9.924316%, 22.366333%, 35.20813%)" offset="0.554687"/><stop stop-opacity="1" stop-color="rgb(10.968018%, 23.403931%, 34.550476%)" offset="0.558594"/><stop stop-opacity="1" stop-color="rgb(12.013245%, 24.443054%, 33.894348%)" offset="0.5625"/><stop stop-opacity="1" stop-color="rgb(13.056946%, 25.480652%, 33.236694%)" offset="0.566406"/><stop stop-opacity="1" stop-color="rgb(14.102173%, 26.51825%, 32.580566%)" offset="0.570312"/><stop stop-opacity="1" stop-color="rgb(15.145874%, 27.555847%, 31.922913%)" offset="0.574219"/><stop stop-opacity="1" stop-color="rgb(16.191101%, 28.594971%, 31.265259%)" offset="0.578125"/><stop stop-opacity="1" stop-color="rgb(17.234802%, 29.632568%, 30.607605%)" offset="0.582031"/><stop stop-opacity="1" stop-color="rgb(18.280029%, 30.671692%, 29.951477%)" offset="0.585938"/><stop stop-opacity="1" stop-color="rgb(19.32373%, 31.70929%, 29.293823%)" offset="0.589844"/><stop stop-opacity="1" stop-color="rgb(20.368958%, 32.746887%, 28.637695%)" offset="0.59375"/><stop stop-opacity="1" stop-color="rgb(21.412659%, 33.784485%, 27.980042%)" offset="0.597656"/><stop stop-opacity="1" stop-color="rgb(22.457886%, 34.823608%, 27.323914%)" offset="0.601562"/><stop stop-opacity="1" stop-color="rgb(23.503113%, 35.861206%, 26.66626%)" offset="0.605469"/><stop stop-opacity="1" stop-color="rgb(24.54834%, 36.90033%, 26.010132%)" offset="0.609375"/><stop stop-opacity="1" stop-color="rgb(25.592041%, 37.937927%, 25.352478%)" offset="0.613281"/><stop stop-opacity="1" stop-color="rgb(26.637268%, 38.977051%, 24.69635%)" offset="0.617187"/><stop stop-opacity="1" stop-color="rgb(27.680969%, 40.014648%, 24.038696%)" offset="0.621094"/><stop stop-opacity="1" stop-color="rgb(28.726196%, 41.052246%, 23.381042%)" offset="0.625"/><stop stop-opacity="1" stop-color="rgb(29.769897%, 42.089844%, 22.723389%)" offset="0.628906"/><stop stop-opacity="1" stop-color="rgb(30.815125%, 43.128967%, 22.067261%)" offset="0.632812"/><stop stop-opacity="1" stop-color="rgb(31.858826%, 44.166565%, 21.409607%)" offset="0.636719"/><stop stop-opacity="1" stop-color="rgb(32.904053%, 45.205688%, 20.753479%)" offset="0.640625"/><stop stop-opacity="1" stop-color="rgb(33.947754%, 46.243286%, 20.095825%)" offset="0.644531"/><stop stop-opacity="1" stop-color="rgb(34.992981%, 47.280884%, 19.439697%)" offset="0.648437"/><stop stop-opacity="1" stop-color="rgb(36.036682%, 48.318481%, 18.782043%)" offset="0.652344"/><stop stop-opacity="1" stop-color="rgb(37.081909%, 49.357605%, 18.125916%)" offset="0.65625"/><stop stop-opacity="1" stop-color="rgb(38.12561%, 50.395203%, 17.468262%)" offset="0.660156"/><stop stop-opacity="1" stop-color="rgb(39.170837%, 51.434326%, 16.812134%)" offset="0.664062"/><stop stop-opacity="1" stop-color="rgb(40.214539%, 52.471924%, 16.15448%)" offset="0.667969"/><stop stop-opacity="1" stop-color="rgb(41.259766%, 53.511047%, 15.496826%)" offset="0.671875"/><stop stop-opacity="1" stop-color="rgb(42.303467%, 54.548645%, 14.839172%)" offset="0.675781"/><stop stop-opacity="1" stop-color="rgb(43.348694%, 55.586243%, 14.183044%)" offset="0.679687"/><stop stop-opacity="1" stop-color="rgb(44.392395%, 56.62384%, 13.525391%)" offset="0.683594"/><stop stop-opacity="1" stop-color="rgb(45.437622%, 57.662964%, 12.869263%)" offset="0.6875"/><stop stop-opacity="1" stop-color="rgb(46.481323%, 58.700562%, 12.211609%)" offset="0.691406"/><stop stop-opacity="1" stop-color="rgb(47.52655%, 59.739685%, 11.555481%)" offset="0.695313"/><stop stop-opacity="1" stop-color="rgb(48.570251%, 60.777283%, 10.897827%)" offset="0.699219"/><stop stop-opacity="1" stop-color="rgb(49.615479%, 61.81488%, 10.241699%)" offset="0.703125"/><stop stop-opacity="1" stop-color="rgb(50.65918%, 62.852478%, 9.584045%)" offset="0.707031"/><stop stop-opacity="1" stop-color="rgb(51.704407%, 63.891602%, 8.927917%)" offset="0.710938"/><stop stop-opacity="1" stop-color="rgb(52.749634%, 64.929199%, 8.270264%)" offset="0.714844"/><stop stop-opacity="1" stop-color="rgb(53.794861%, 65.968323%, 7.614136%)" offset="0.71875"/><stop stop-opacity="1" stop-color="rgb(54.838562%, 67.00592%, 6.956482%)" offset="0.722656"/><stop stop-opacity="1" stop-color="rgb(55.883789%, 68.045044%, 6.298828%)" offset="0.726562"/><stop stop-opacity="1" stop-color="rgb(56.92749%, 69.082642%, 5.641174%)" offset="0.730469"/><stop stop-opacity="1" stop-color="rgb(57.972717%, 70.120239%, 4.985046%)" offset="0.734375"/><stop stop-opacity="1" stop-color="rgb(59.016418%, 71.157837%, 4.327393%)" offset="0.738281"/><stop stop-opacity="1" stop-color="rgb(60.061646%, 72.19696%, 3.671265%)" offset="0.742188"/><stop stop-opacity="1" stop-color="rgb(61.105347%, 73.234558%, 3.013611%)" offset="0.746094"/><stop stop-opacity="1" stop-color="rgb(62.150574%, 74.273682%, 2.357483%)" offset="0.75"/><stop stop-opacity="1" stop-color="rgb(63.194275%, 75.311279%, 1.699829%)" offset="0.753906"/><stop stop-opacity="1" stop-color="rgb(64.239502%, 76.348877%, 1.043701%)" offset="0.757812"/><stop stop-opacity="1" stop-color="rgb(65.06958%, 77.174377%, 0.521851%)" offset="0.761719"/><stop stop-opacity="1" stop-color="rgb(65.899658%, 77.999878%, 0%)" offset="0.765625"/><stop stop-opacity="1" stop-color="rgb(65.899658%, 77.999878%, 0%)" offset="0.78125"/><stop stop-opacity="1" stop-color="rgb(65.899658%, 77.999878%, 0%)" offset="0.8125"/><stop stop-opacity="1" stop-color="rgb(65.899658%, 77.999878%, 0%)" offset="0.875"/><stop stop-opacity="1" stop-color="rgb(65.899658%, 77.999878%, 0%)" offset="1"/></linearGradient></defs><g clip-path="url(#d2ae5562ac)"><g clip-path="url(#62fe071b71)"><path fill="url(#4d60c2fa49)" d="M 34.089844 0.214844 L 34.089844 374.785156 L 340.839844 374.785156 L 340.839844 0.214844 Z M 34.089844 0.214844 " fill-rule="nonzero"/></g></g><path stroke-linecap="butt" transform="matrix(0.75, 0, 0, 0.75, 0.0000045, 26.522651)" fill="none" stroke-linejoin="miter" d="M 30.088538 332.00107 L 30.088538 108.568764 L 78.562499 108.568764 L 149.791671 250.251064 L 220.005217 108.568764 L 268.479178 108.568764 L 268.479178 332.00107 L 227.645842 332.00107 L 227.645842 177.850018 L 165.375005 300.047943 L 133.192711 300.047943 L 70.921874 177.850018 L 70.921874 332.00107 Z M 311.947931 332.00107 L 311.947931 108.568764 L 401.651062 108.568764 C 424.822939 108.568764 442.51044 113.943764 454.718774 124.698973 C 466.979191 135.454182 473.114608 149.225016 473.114608 166.006267 C 473.114608 180.03231 469.317733 191.256269 461.734399 199.672936 C 454.203149 208.089603 445.005232 213.777104 434.145856 216.740646 C 446.927107 219.282312 457.473982 225.620855 465.786483 235.756272 C 474.098983 245.886481 478.255234 257.652107 478.255234 271.058358 C 478.255234 288.719817 471.864608 303.292735 459.083357 314.77711 C 446.302107 326.261486 428.197939 332.00107 404.765646 332.00107 Z M 352.786475 202.396895 L 395.567728 202.396895 C 407.052104 202.396895 415.859396 199.751061 421.989605 194.448977 C 428.171897 189.100019 431.260439 181.537518 431.260439 171.771893 C 431.260439 162.417725 428.22398 155.042725 422.145855 149.636475 C 416.119813 144.183349 407.026062 141.454182 394.869812 141.454182 L 352.786475 141.454182 Z M 352.786475 298.803151 L 398.453145 298.803151 C 410.557313 298.803151 419.963563 295.995859 426.666689 290.386484 C 433.364606 284.719817 436.718773 276.7719 436.718773 266.537524 C 436.718773 256.146898 433.213564 247.964606 426.197939 241.990647 C 419.182313 236.01148 409.703146 233.027105 397.75002 233.027105 L 352.786475 233.027105 Z M 352.786475 298.803151 " stroke="#000000" stroke-width="23.940825" stroke-opacity="1" stroke-miterlimit="4"/><g fill="#c3d7ee" fill-opacity="1"><g transform="translate(6.257817, 275.522635)"><g><path d="M 16.28125 0 L 16.28125 -167.578125 L 52.671875 -167.578125 L 106.0625 -61.28125 L 158.71875 -167.578125 L 195.109375 -167.578125 L 195.109375 0 L 164.46875 0 L 164.46875 -115.640625 L 117.78125 -23.9375 L 93.609375 -23.9375 L 46.921875 -115.640625 L 46.921875 0 Z M 16.28125 0 "/></g></g></g><g fill="#c3d7ee" fill-opacity="1"><g transform="translate(217.654258, 275.522635)"><g><path d="M 16.28125 0 L 16.28125 -167.578125 L 83.546875 -167.578125 C 100.941406 -167.578125 114.226562 -163.546875 123.40625 -155.484375 C 132.59375 -147.429688 137.1875 -137.097656 137.1875 -124.484375 C 137.1875 -113.953125 134.351562 -105.535156 128.6875 -99.234375 C 123.019531 -92.929688 116.113281 -88.660156 107.96875 -86.421875 C 117.550781 -84.503906 125.453125 -79.753906 131.671875 -72.171875 C 137.898438 -64.597656 141.015625 -55.785156 141.015625 -45.734375 C 141.015625 -32.484375 136.222656 -21.546875 126.640625 -12.921875 C 117.066406 -4.304688 103.503906 0 85.953125 0 Z M 46.921875 -97.203125 L 79 -97.203125 C 87.625 -97.203125 94.25 -99.195312 98.875 -103.1875 C 103.5 -107.175781 105.8125 -112.84375 105.8125 -120.1875 C 105.8125 -127.207031 103.535156 -132.75 98.984375 -136.8125 C 94.441406 -140.882812 87.625 -142.921875 78.53125 -142.921875 L 46.921875 -142.921875 Z M 46.921875 -24.890625 L 81.15625 -24.890625 C 90.257812 -24.890625 97.320312 -27.003906 102.34375 -31.234375 C 107.375 -35.472656 109.890625 -41.421875 109.890625 -49.078125 C 109.890625 -56.898438 107.253906 -63.046875 101.984375 -67.515625 C 96.722656 -71.984375 89.625 -74.21875 80.6875 -74.21875 L 46.921875 -74.21875 Z M 46.921875 -24.890625 "/></g></g></g></svg>