<svg xmlns="http://www.w3.org/2000/svg" xmlns:xlink="http://www.w3.org/1999/xlink" width="500" zoomAndPan="magnify" viewBox="0 0 375 374.999991" height="500" preserveAspectRatio="xMidYMid meet" version="1.0"><defs><g/><clipPath id="a5f8f59df6"><path d="M 34.089844 0 L 340.839844 0 L 340.839844 375 L 34.089844 375 Z M 34.089844 0 " clip-rule="nonzero"/></clipPath><clipPath id="b99d240a39"><path d="M 64.171875 103.527344 C 61.238281 101.792969 57.769531 100.792969 54.101562 100.792969 C 43.027344 100.792969 34.089844 109.730469 34.089844 120.800781 C 34.089844 129.539062 39.695312 136.941406 47.429688 139.679688 L 47.429688 254.199219 C 47.429688 256.132812 48.296875 258 49.765625 259.265625 L 183.160156 372.652344 C 185.628906 374.785156 189.296875 374.785156 191.832031 372.652344 L 244.121094 328.164062 C 247.054688 329.898438 250.523438 330.898438 254.191406 330.898438 C 265.265625 330.898438 274.203125 321.960938 274.203125 310.890625 C 274.203125 308.355469 273.734375 305.953125 272.867188 303.753906 L 310.820312 271.472656 C 313.753906 273.207031 317.222656 274.207031 320.890625 274.207031 C 331.960938 274.207031 340.898438 265.269531 340.898438 254.199219 C 340.898438 245.460938 335.296875 238.058594 327.558594 235.320312 L 327.558594 120.800781 C 327.558594 118.867188 326.691406 117 325.226562 115.734375 L 272.933594 71.246094 C 273.800781 69.046875 274.269531 66.644531 274.269531 64.109375 C 274.269531 53.039062 265.332031 44.101562 254.257812 44.101562 C 250.589844 44.101562 247.191406 45.101562 244.1875 46.835938 L 191.832031 2.347656 C 189.363281 0.214844 185.695312 0.214844 183.160156 2.347656 Z M 204.503906 251.460938 C 200.96875 257.132812 194.699219 260.867188 187.5625 260.867188 C 185.496094 260.867188 183.492188 260.535156 181.558594 259.933594 L 165.285156 281.609375 C 166.753906 284.34375 167.550781 287.546875 167.550781 290.8125 C 167.550781 296.21875 165.417969 301.152344 161.882812 304.753906 L 187.5625 353.242188 L 232.847656 267.671875 C 230.046875 264.667969 228.179688 260.800781 227.714844 256.53125 L 204.503906 251.394531 Z M 302.082031 260.867188 L 266.464844 260.867188 C 263.730469 268.605469 256.328125 274.207031 247.589844 274.207031 C 246.589844 274.207031 245.589844 274.207031 244.65625 274.007812 L 209.707031 340.039062 L 235.585938 318.027344 C 234.71875 315.824219 234.25 313.425781 234.25 310.890625 C 234.25 299.820312 243.1875 290.882812 254.257812 290.882812 C 257.929688 290.882812 261.328125 291.882812 264.332031 293.617188 L 302.28125 261.335938 C 302.28125 261.335938 302.148438 261 302.082031 260.867188 Z M 120.597656 206.242188 L 111.394531 217.246094 C 113.195312 220.25 114.195312 223.714844 114.195312 227.453125 C 114.195312 238.523438 105.257812 247.460938 94.183594 247.460938 C 89.714844 247.460938 85.515625 245.992188 82.179688 243.460938 L 65.238281 254.796875 L 165.417969 339.96875 L 149.945312 310.691406 C 149.144531 310.757812 148.34375 310.824219 147.542969 310.824219 C 136.472656 310.824219 127.535156 301.886719 127.535156 290.816406 C 127.535156 285.8125 129.402344 281.210938 132.46875 277.675781 L 121.664062 257.265625 C 121.132812 256.332031 120.863281 255.265625 120.863281 254.128906 L 120.863281 206.308594 L 120.597656 206.175781 Z M 254.257812 304.21875 C 257.929688 304.21875 260.929688 307.222656 260.929688 310.890625 C 260.929688 314.558594 257.929688 317.558594 254.257812 317.558594 C 250.589844 317.558594 247.589844 314.558594 247.589844 310.890625 C 247.589844 307.222656 250.589844 304.21875 254.257812 304.21875 Z M 147.542969 284.210938 C 151.210938 284.210938 154.214844 287.210938 154.214844 290.882812 C 154.214844 294.550781 151.210938 297.550781 147.542969 297.550781 C 143.875 297.550781 140.875 294.550781 140.875 290.882812 C 140.875 287.210938 143.875 284.210938 147.542969 284.210938 Z M 180.757812 132.941406 L 144.609375 177.09375 C 146.476562 180.097656 147.542969 183.699219 147.542969 187.5 C 147.542969 196.238281 141.941406 203.640625 134.203125 206.375 L 134.203125 252.53125 L 144.074219 271.136719 C 145.207031 270.9375 146.34375 270.804688 147.542969 270.804688 C 150.34375 270.804688 153.078125 271.40625 155.480469 272.472656 L 170.886719 251.929688 C 168.753906 248.726562 167.550781 244.925781 167.550781 240.859375 C 167.550781 232.121094 173.15625 224.71875 180.890625 221.984375 L 180.890625 133.007812 L 180.757812 133.007812 Z M 320.957031 247.527344 C 324.625 247.527344 327.625 250.527344 327.625 254.199219 C 327.625 257.867188 324.625 260.867188 320.957031 260.867188 C 317.289062 260.867188 314.289062 257.867188 314.289062 254.199219 C 314.289062 250.527344 317.289062 247.527344 320.957031 247.527344 Z M 247.589844 247.527344 C 251.257812 247.527344 254.257812 250.527344 254.257812 254.199219 C 254.257812 257.867188 251.257812 260.867188 247.589844 260.867188 C 243.921875 260.867188 240.917969 257.867188 240.917969 254.199219 C 240.917969 250.527344 243.921875 247.527344 247.589844 247.527344 Z M 187.5625 234.1875 C 191.230469 234.1875 194.230469 237.191406 194.230469 240.859375 C 194.230469 244.527344 191.230469 247.527344 187.5625 247.527344 C 183.894531 247.527344 180.890625 244.527344 180.890625 240.859375 C 180.890625 237.191406 183.894531 234.1875 187.5625 234.1875 Z M 257.0625 205.109375 C 256.195312 205.574219 255.261719 206.042969 254.257812 206.375 L 254.257812 235.320312 C 259.929688 237.324219 264.464844 241.859375 266.464844 247.527344 L 302.082031 247.527344 C 302.214844 247.128906 302.347656 246.792969 302.480469 246.460938 Z M 237.917969 204.976562 L 206.105469 233.253906 C 206.769531 234.855469 207.238281 236.589844 207.4375 238.390625 L 230.648438 243.527344 C 233.050781 239.722656 236.652344 236.789062 240.917969 235.253906 L 240.917969 206.308594 C 239.851562 205.910156 238.851562 205.507812 237.917969 204.976562 Z M 63.570312 138.410156 C 62.703125 138.878906 61.769531 139.34375 60.769531 139.679688 L 60.769531 241.726562 L 74.710938 232.453125 C 74.308594 230.851562 74.109375 229.253906 74.109375 227.519531 C 74.109375 216.445312 83.046875 207.507812 94.117188 207.507812 C 96.585938 207.507812 98.921875 207.976562 101.054688 208.777344 L 110.257812 197.769531 C 108.457031 194.769531 107.457031 191.300781 107.457031 187.566406 C 107.457031 184.832031 107.992188 182.164062 108.992188 179.828125 L 63.570312 138.476562 Z M 294.210938 106.863281 L 294.210938 121.9375 C 301.949219 124.671875 307.550781 132.074219 307.550781 140.8125 C 307.550781 151.882812 298.613281 160.820312 287.542969 160.820312 C 285.007812 160.820312 282.539062 160.355469 280.339844 159.488281 L 264.863281 177.5625 C 266.53125 180.496094 267.53125 183.898438 267.53125 187.566406 C 267.53125 190.300781 267 192.96875 266 195.304688 L 311.417969 236.65625 C 312.285156 236.1875 313.21875 235.722656 314.21875 235.390625 L 314.21875 123.9375 L 294.210938 106.929688 Z M 94.117188 220.847656 C 97.785156 220.847656 100.789062 223.851562 100.789062 227.519531 C 100.789062 231.1875 97.785156 234.1875 94.117188 234.1875 C 90.449219 234.1875 87.449219 231.1875 87.449219 227.519531 C 87.449219 223.851562 90.449219 220.847656 94.117188 220.847656 Z M 206.035156 121.601562 C 203.902344 126.871094 199.566406 131.074219 194.164062 133.007812 L 194.164062 221.984375 C 195.230469 222.382812 196.234375 222.78125 197.167969 223.316406 L 228.980469 195.035156 C 228.046875 192.703125 227.515625 190.167969 227.515625 187.5 C 227.515625 178.761719 233.117188 171.359375 240.851562 168.625 L 240.851562 126.605469 L 206.039062 121.601562 Z M 127.46875 180.832031 C 131.136719 180.832031 134.136719 183.832031 134.136719 187.5 C 134.136719 191.167969 131.136719 194.167969 127.46875 194.167969 C 123.800781 194.167969 120.796875 191.167969 120.796875 187.5 C 120.796875 183.832031 123.800781 180.832031 127.46875 180.832031 Z M 247.523438 180.832031 C 251.191406 180.832031 254.191406 183.832031 254.191406 187.5 C 254.191406 191.167969 251.191406 194.167969 247.523438 194.167969 C 243.855469 194.167969 240.851562 191.167969 240.851562 187.5 C 240.851562 183.832031 243.855469 180.832031 247.523438 180.832031 Z M 109.125 112.867188 L 92.183594 97.191406 L 72.777344 113.664062 C 73.640625 115.867188 74.109375 118.269531 74.109375 120.800781 C 74.109375 123.535156 73.574219 126.203125 72.574219 128.539062 L 117.996094 169.890625 C 118.863281 169.425781 119.796875 168.957031 120.796875 168.625 L 120.796875 139.679688 C 113.0625 136.941406 107.457031 129.539062 107.457031 120.800781 C 107.457031 118 108.058594 115.265625 109.125 112.867188 Z M 267.730469 138.34375 L 254.257812 131.609375 L 254.257812 168.625 C 254.257812 168.625 254.59375 168.757812 254.792969 168.824219 L 270.265625 150.75 C 268.597656 147.816406 267.597656 144.414062 267.597656 140.746094 C 267.597656 139.878906 267.597656 139.078125 267.730469 138.277344 Z M 170.355469 103.929688 L 154.214844 84.585938 L 142.207031 107.261719 C 145.476562 110.863281 147.476562 115.601562 147.476562 120.800781 C 147.476562 129.539062 141.875 136.941406 134.136719 139.679688 L 134.136719 168.625 L 134.269531 168.625 C 134.269531 168.625 170.421875 124.539062 170.421875 124.539062 C 168.554688 121.535156 167.484375 117.933594 167.484375 114.132812 C 167.484375 110.332031 168.488281 106.929688 170.289062 103.929688 Z M 287.609375 134.140625 C 291.277344 134.140625 294.277344 137.144531 294.277344 140.8125 C 294.277344 144.480469 291.277344 147.480469 287.609375 147.480469 C 283.941406 147.480469 280.9375 144.480469 280.9375 140.8125 C 280.9375 137.144531 283.941406 134.140625 287.609375 134.140625 Z M 127.535156 114.132812 C 131.203125 114.132812 134.203125 117.132812 134.203125 120.800781 C 134.203125 124.472656 131.203125 127.472656 127.535156 127.472656 C 123.867188 127.472656 120.863281 124.472656 120.863281 120.800781 C 120.863281 117.132812 123.867188 114.132812 127.535156 114.132812 Z M 54.167969 114.132812 C 57.835938 114.132812 60.835938 117.132812 60.835938 120.800781 C 60.835938 124.472656 57.835938 127.472656 54.167969 127.472656 C 50.5 127.472656 47.496094 124.472656 47.496094 120.800781 C 47.496094 117.132812 50.5 114.132812 54.167969 114.132812 Z M 235.585938 56.972656 L 209.707031 34.960938 L 252.457031 115.734375 L 273.667969 126.339844 C 275.734375 124.402344 278.136719 122.871094 280.871094 121.871094 L 280.871094 95.457031 L 264.265625 81.316406 C 261.328125 83.050781 257.859375 84.050781 254.191406 84.050781 C 243.121094 84.050781 234.183594 75.113281 234.183594 64.042969 C 234.183594 61.507812 234.648438 59.105469 235.515625 56.90625 Z M 194.230469 114.066406 C 194.230469 110.398438 191.230469 107.464844 187.5625 107.464844 C 183.894531 107.464844 180.890625 110.464844 180.890625 114.132812 C 180.890625 117.800781 183.894531 120.800781 187.5625 120.800781 C 191.230469 120.800781 194.164062 117.867188 194.230469 114.199219 Z M 161.015625 71.847656 L 180.625 95.390625 C 182.757812 94.589844 185.160156 94.125 187.5625 94.125 C 196.566406 94.125 204.167969 100.058594 206.703125 108.195312 L 235.585938 112.332031 L 187.5625 21.691406 Z M 130.46875 100.992188 L 165.417969 34.960938 L 102.523438 88.453125 L 118.261719 103.0625 C 121.066406 101.59375 124.199219 100.792969 127.535156 100.792969 C 128.535156 100.792969 129.535156 100.859375 130.46875 100.992188 Z M 254.257812 57.441406 C 257.929688 57.441406 260.929688 60.441406 260.929688 64.109375 C 260.929688 67.777344 257.929688 70.78125 254.257812 70.78125 C 250.589844 70.78125 247.589844 67.777344 247.589844 64.109375 C 247.589844 60.441406 250.589844 57.441406 254.257812 57.441406 Z M 254.257812 57.441406 " clip-rule="evenodd"/></clipPath><linearGradient x1="-2.539998" gradientTransform="matrix(6.669751, 0, 0, 6.669751, 34.090912, 0.74695)" y1="53.539997" x2="48.535608" gradientUnits="userSpaceOnUse" y2="2.464391" id="9b9b9c1662"><stop stop-opacity="1" stop-color="rgb(0%, 47.499084%, 48.599243%)" offset="0"/><stop stop-opacity="1" stop-color="rgb(0%, 47.499084%, 48.599243%)" offset="0.125"/><stop stop-opacity="1" stop-color="rgb(0%, 47.499084%, 48.599243%)" offset="0.1875"/><stop stop-opacity="1" stop-color="rgb(0.120544%, 47.40448%, 48.687744%)" offset="0.195312"/><stop stop-opacity="1" stop-color="rgb(0.576782%, 47.050476%, 49.023438%)" offset="0.199219"/><stop stop-opacity="1" stop-color="rgb(0.91095%, 46.792603%, 49.269104%)" offset="0.203125"/><stop stop-opacity="1" stop-color="rgb(1.245117%, 46.533203%, 49.514771%)" offset="0.207031"/><stop stop-opacity="1" stop-color="rgb(1.579285%, 46.27533%, 49.760437%)" offset="0.210937"/><stop stop-opacity="1" stop-color="rgb(1.911926%, 46.017456%, 50.006104%)" offset="0.214844"/><stop stop-opacity="1" stop-color="rgb(2.246094%, 45.759583%, 50.25177%)" offset="0.21875"/><stop stop-opacity="1" stop-color="rgb(2.580261%, 45.500183%, 50.497437%)" offset="0.222656"/><stop stop-opacity="1" stop-color="rgb(2.914429%, 45.24231%, 50.743103%)" offset="0.226562"/><stop stop-opacity="1" stop-color="rgb(3.24707%, 44.98291%, 50.987244%)" offset="0.230469"/><stop stop-opacity="1" stop-color="rgb(3.581238%, 44.725037%, 51.23291%)" offset="0.234375"/><stop stop-opacity="1" stop-color="rgb(3.915405%, 44.465637%, 51.478577%)" offset="0.238281"/><stop stop-opacity="1" stop-color="rgb(4.249573%, 44.207764%, 51.724243%)" offset="0.242187"/><stop stop-opacity="1" stop-color="rgb(4.58374%, 43.948364%, 51.96991%)" offset="0.246094"/><stop stop-opacity="1" stop-color="rgb(4.917908%, 43.690491%, 52.215576%)" offset="0.25"/><stop stop-opacity="1" stop-color="rgb(5.250549%, 43.431091%, 52.461243%)" offset="0.253906"/><stop stop-opacity="1" stop-color="rgb(5.584717%, 43.173218%, 52.706909%)" offset="0.257812"/><stop stop-opacity="1" stop-color="rgb(5.918884%, 42.913818%, 52.95105%)" offset="0.261719"/><stop stop-opacity="1" stop-color="rgb(6.253052%, 42.655945%, 53.196716%)" offset="0.265625"/><stop stop-opacity="1" stop-color="rgb(6.585693%, 42.396545%, 53.442383%)" offset="0.269531"/><stop stop-opacity="1" stop-color="rgb(6.919861%, 42.138672%, 53.688049%)" offset="0.273438"/><stop stop-opacity="1" stop-color="rgb(7.254028%, 41.879272%, 53.933716%)" offset="0.277344"/><stop stop-opacity="1" stop-color="rgb(7.588196%, 41.621399%, 54.179382%)" offset="0.28125"/><stop stop-opacity="1" stop-color="rgb(7.922363%, 41.362%, 54.425049%)" offset="0.285156"/><stop stop-opacity="1" stop-color="rgb(8.256531%, 41.104126%, 54.670715%)" offset="0.289062"/><stop stop-opacity="1" stop-color="rgb(8.589172%, 40.844727%, 54.916382%)" offset="0.292969"/><stop stop-opacity="1" stop-color="rgb(8.92334%, 40.586853%, 55.162048%)" offset="0.296875"/><stop stop-opacity="1" stop-color="rgb(9.257507%, 40.327454%, 55.406189%)" offset="0.300781"/><stop stop-opacity="1" stop-color="rgb(9.591675%, 40.06958%, 55.651855%)" offset="0.304688"/><stop stop-opacity="1" stop-color="rgb(9.87854%, 39.788818%, 55.85022%)" offset="0.308594"/><stop stop-opacity="1" stop-color="rgb(10.165405%, 39.508057%, 56.048584%)" offset="0.3125"/><stop stop-opacity="1" stop-color="rgb(9.980774%, 39.004517%, 55.767822%)" offset="0.316406"/><stop stop-opacity="1" stop-color="rgb(9.796143%, 38.502502%, 55.487061%)" offset="0.320312"/><stop stop-opacity="1" stop-color="rgb(9.611511%, 37.998962%, 55.206299%)" offset="0.324219"/><stop stop-opacity="1" stop-color="rgb(9.42688%, 37.495422%, 54.925537%)" offset="0.328125"/><stop stop-opacity="1" stop-color="rgb(9.242249%, 36.991882%, 54.644775%)" offset="0.332031"/><stop stop-opacity="1" stop-color="rgb(9.057617%, 36.489868%, 54.364014%)" offset="0.335938"/><stop stop-opacity="1" stop-color="rgb(8.872986%, 35.986328%, 54.083252%)" offset="0.339844"/><stop stop-opacity="1" stop-color="rgb(8.688354%, 35.482788%, 53.80249%)" offset="0.34375"/><stop stop-opacity="1" stop-color="rgb(8.503723%, 34.979248%, 53.521729%)" offset="0.347656"/><stop stop-opacity="1" stop-color="rgb(8.319092%, 34.477234%, 53.240967%)" offset="0.351562"/><stop stop-opacity="1" stop-color="rgb(8.13446%, 33.973694%, 52.960205%)" offset="0.355469"/><stop stop-opacity="1" stop-color="rgb(7.949829%, 33.470154%, 52.679443%)" offset="0.359375"/><stop stop-opacity="1" stop-color="rgb(7.765198%, 32.966614%, 52.398682%)" offset="0.363281"/><stop stop-opacity="1" stop-color="rgb(7.580566%, 32.4646%, 52.11792%)" offset="0.367187"/><stop stop-opacity="1" stop-color="rgb(7.395935%, 31.96106%, 51.837158%)" offset="0.371094"/><stop stop-opacity="1" stop-color="rgb(7.211304%, 31.45752%, 51.556396%)" offset="0.375"/><stop stop-opacity="1" stop-color="rgb(7.026672%, 30.953979%, 51.274109%)" offset="0.378906"/><stop stop-opacity="1" stop-color="rgb(6.842041%, 30.450439%, 50.993347%)" offset="0.382812"/><stop stop-opacity="1" stop-color="rgb(6.65741%, 29.946899%, 50.712585%)" offset="0.386719"/><stop stop-opacity="1" stop-color="rgb(6.472778%, 29.444885%, 50.431824%)" offset="0.390625"/><stop stop-opacity="1" stop-color="rgb(6.286621%, 28.941345%, 50.151062%)" offset="0.394531"/><stop stop-opacity="1" stop-color="rgb(6.10199%, 28.437805%, 49.8703%)" offset="0.398438"/><stop stop-opacity="1" stop-color="rgb(5.917358%, 27.934265%, 49.589539%)" offset="0.402344"/><stop stop-opacity="1" stop-color="rgb(5.732727%, 27.432251%, 49.308777%)" offset="0.40625"/><stop stop-opacity="1" stop-color="rgb(5.548096%, 26.928711%, 49.028015%)" offset="0.410156"/><stop stop-opacity="1" stop-color="rgb(5.363464%, 26.425171%, 48.747253%)" offset="0.414062"/><stop stop-opacity="1" stop-color="rgb(5.178833%, 25.921631%, 48.466492%)" offset="0.417969"/><stop stop-opacity="1" stop-color="rgb(4.994202%, 25.419617%, 48.18573%)" offset="0.421875"/><stop stop-opacity="1" stop-color="rgb(4.80957%, 24.916077%, 47.904968%)" offset="0.425781"/><stop stop-opacity="1" stop-color="rgb(4.624939%, 24.412537%, 47.624207%)" offset="0.429687"/><stop stop-opacity="1" stop-color="rgb(4.440308%, 23.908997%, 47.343445%)" offset="0.433594"/><stop stop-opacity="1" stop-color="rgb(4.255676%, 23.406982%, 47.062683%)" offset="0.4375"/><stop stop-opacity="1" stop-color="rgb(4.071045%, 22.903442%, 46.781921%)" offset="0.441406"/><stop stop-opacity="1" stop-color="rgb(3.886414%, 22.399902%, 46.50116%)" offset="0.445312"/><stop stop-opacity="1" stop-color="rgb(3.701782%, 21.896362%, 46.220398%)" offset="0.449219"/><stop stop-opacity="1" stop-color="rgb(3.517151%, 21.394348%, 45.939636%)" offset="0.453125"/><stop stop-opacity="1" stop-color="rgb(3.33252%, 20.890808%, 45.658875%)" offset="0.457031"/><stop stop-opacity="1" stop-color="rgb(3.147888%, 20.387268%, 45.378113%)" offset="0.460938"/><stop stop-opacity="1" stop-color="rgb(2.963257%, 19.883728%, 45.097351%)" offset="0.464844"/><stop stop-opacity="1" stop-color="rgb(2.778625%, 19.380188%, 44.816589%)" offset="0.46875"/><stop stop-opacity="1" stop-color="rgb(2.593994%, 18.876648%, 44.535828%)" offset="0.472656"/><stop stop-opacity="1" stop-color="rgb(2.409363%, 18.374634%, 44.255066%)" offset="0.476562"/><stop stop-opacity="1" stop-color="rgb(2.224731%, 17.871094%, 43.974304%)" offset="0.480469"/><stop stop-opacity="1" stop-color="rgb(2.0401%, 17.367554%, 43.693542%)" offset="0.484375"/><stop stop-opacity="1" stop-color="rgb(1.855469%, 16.864014%, 43.412781%)" offset="0.488281"/><stop stop-opacity="1" stop-color="rgb(1.670837%, 16.362%, 43.132019%)" offset="0.492187"/><stop stop-opacity="1" stop-color="rgb(1.48468%, 15.858459%, 42.851257%)" offset="0.496094"/><stop stop-opacity="1" stop-color="rgb(1.300049%, 15.354919%, 42.570496%)" offset="0.5"/><stop stop-opacity="1" stop-color="rgb(1.115417%, 14.851379%, 42.288208%)" offset="0.503906"/><stop stop-opacity="1" stop-color="rgb(0.930786%, 14.349365%, 42.007446%)" offset="0.507812"/><stop stop-opacity="1" stop-color="rgb(0.746155%, 13.845825%, 41.726685%)" offset="0.511719"/><stop stop-opacity="1" stop-color="rgb(0.561523%, 13.342285%, 41.445923%)" offset="0.515625"/><stop stop-opacity="1" stop-color="rgb(1.065063%, 13.700867%, 40.95459%)" offset="0.519531"/><stop stop-opacity="1" stop-color="rgb(1.568604%, 14.060974%, 40.463257%)" offset="0.523438"/><stop stop-opacity="1" stop-color="rgb(2.612305%, 15.098572%, 39.805603%)" offset="0.527344"/><stop stop-opacity="1" stop-color="rgb(3.657532%, 16.137695%, 39.149475%)" offset="0.53125"/><stop stop-opacity="1" stop-color="rgb(4.701233%, 17.175293%, 38.491821%)" offset="0.535156"/><stop stop-opacity="1" stop-color="rgb(5.74646%, 18.212891%, 37.835693%)" offset="0.539062"/><stop stop-opacity="1" stop-color="rgb(6.790161%, 19.250488%, 37.17804%)" offset="0.542969"/><stop stop-opacity="1" stop-color="rgb(7.835388%, 20.289612%, 36.521912%)" offset="0.546875"/><stop stop-opacity="1" stop-color="rgb(8.879089%, 21.327209%, 35.864258%)" offset="0.550781"/><stop stop-opacity="1" stop-color="rgb(9.924316%, 22.366333%, 35.20813%)" offset="0.554687"/><stop stop-opacity="1" stop-color="rgb(10.968018%, 23.403931%, 34.550476%)" offset="0.558594"/><stop stop-opacity="1" stop-color="rgb(12.013245%, 24.443054%, 33.894348%)" offset="0.5625"/><stop stop-opacity="1" stop-color="rgb(13.056946%, 25.480652%, 33.236694%)" offset="0.566406"/><stop stop-opacity="1" stop-color="rgb(14.102173%, 26.51825%, 32.580566%)" offset="0.570312"/><stop stop-opacity="1" stop-color="rgb(15.145874%, 27.555847%, 31.922913%)" offset="0.574219"/><stop stop-opacity="1" stop-color="rgb(16.191101%, 28.594971%, 31.265259%)" offset="0.578125"/><stop stop-opacity="1" stop-color="rgb(17.234802%, 29.632568%, 30.607605%)" offset="0.582031"/><stop stop-opacity="1" stop-color="rgb(18.280029%, 30.671692%, 29.951477%)" offset="0.585938"/><stop stop-opacity="1" stop-color="rgb(19.32373%, 31.70929%, 29.293823%)" offset="0.589844"/><stop stop-opacity="1" stop-color="rgb(20.368958%, 32.746887%, 28.637695%)" offset="0.59375"/><stop stop-opacity="1" stop-color="rgb(21.412659%, 33.784485%, 27.980042%)" offset="0.597656"/><stop stop-opacity="1" stop-color="rgb(22.457886%, 34.823608%, 27.323914%)" offset="0.601562"/><stop stop-opacity="1" stop-color="rgb(23.503113%, 35.861206%, 26.66626%)" offset="0.605469"/><stop stop-opacity="1" stop-color="rgb(24.54834%, 36.90033%, 26.010132%)" offset="0.609375"/><stop stop-opacity="1" stop-color="rgb(25.592041%, 37.937927%, 25.352478%)" offset="0.613281"/><stop stop-opacity="1" stop-color="rgb(26.637268%, 38.977051%, 24.69635%)" offset="0.617187"/><stop stop-opacity="1" stop-color="rgb(27.680969%, 40.014648%, 24.038696%)" offset="0.621094"/><stop stop-opacity="1" stop-color="rgb(28.726196%, 41.052246%, 23.381042%)" offset="0.625"/><stop stop-opacity="1" stop-color="rgb(29.769897%, 42.089844%, 22.723389%)" offset="0.628906"/><stop stop-opacity="1" stop-color="rgb(30.815125%, 43.128967%, 22.067261%)" offset="0.632812"/><stop stop-opacity="1" stop-color="rgb(31.858826%, 44.166565%, 21.409607%)" offset="0.636719"/><stop stop-opacity="1" stop-color="rgb(32.904053%, 45.205688%, 20.753479%)" offset="0.640625"/><stop stop-opacity="1" stop-color="rgb(33.947754%, 46.243286%, 20.095825%)" offset="0.644531"/><stop stop-opacity="1" stop-color="rgb(34.992981%, 47.280884%, 19.439697%)" offset="0.648437"/><stop stop-opacity="1" stop-color="rgb(36.036682%, 48.318481%, 18.782043%)" offset="0.652344"/><stop stop-opacity="1" stop-color="rgb(37.081909%, 49.357605%, 18.125916%)" offset="0.65625"/><stop stop-opacity="1" stop-color="rgb(38.12561%, 50.395203%, 17.468262%)" offset="0.660156"/><stop stop-opacity="1" stop-color="rgb(39.170837%, 51.434326%, 16.812134%)" offset="0.664062"/><stop stop-opacity="1" stop-color="rgb(40.214539%, 52.471924%, 16.15448%)" offset="0.667969"/><stop stop-opacity="1" stop-color="rgb(41.259766%, 53.511047%, 15.496826%)" offset="0.671875"/><stop stop-opacity="1" stop-color="rgb(42.303467%, 54.548645%, 14.839172%)" offset="0.675781"/><stop stop-opacity="1" stop-color="rgb(43.348694%, 55.586243%, 14.183044%)" offset="0.679687"/><stop stop-opacity="1" stop-color="rgb(44.392395%, 56.62384%, 13.525391%)" offset="0.683594"/><stop stop-opacity="1" stop-color="rgb(45.437622%, 57.662964%, 12.869263%)" offset="0.6875"/><stop stop-opacity="1" stop-color="rgb(46.481323%, 58.700562%, 12.211609%)" offset="0.691406"/><stop stop-opacity="1" stop-color="rgb(47.52655%, 59.739685%, 11.555481%)" offset="0.695313"/><stop stop-opacity="1" stop-color="rgb(48.570251%, 60.777283%, 10.897827%)" offset="0.699219"/><stop stop-opacity="1" stop-color="rgb(49.615479%, 61.81488%, 10.241699%)" offset="0.703125"/><stop stop-opacity="1" stop-color="rgb(50.65918%, 62.852478%, 9.584045%)" offset="0.707031"/><stop stop-opacity="1" stop-color="rgb(51.704407%, 63.891602%, 8.927917%)" offset="0.710938"/><stop stop-opacity="1" stop-color="rgb(52.749634%, 64.929199%, 8.270264%)" offset="0.714844"/><stop stop-opacity="1" stop-color="rgb(53.794861%, 65.968323%, 7.614136%)" offset="0.71875"/><stop stop-opacity="1" stop-color="rgb(54.838562%, 67.00592%, 6.956482%)" offset="0.722656"/><stop stop-opacity="1" stop-color="rgb(55.883789%, 68.045044%, 6.298828%)" offset="0.726562"/><stop stop-opacity="1" stop-color="rgb(56.92749%, 69.082642%, 5.641174%)" offset="0.730469"/><stop stop-opacity="1" stop-color="rgb(57.972717%, 70.120239%, 4.985046%)" offset="0.734375"/><stop stop-opacity="1" stop-color="rgb(59.016418%, 71.157837%, 4.327393%)" offset="0.738281"/><stop stop-opacity="1" stop-color="rgb(60.061646%, 72.19696%, 3.671265%)" offset="0.742188"/><stop stop-opacity="1" stop-color="rgb(61.105347%, 73.234558%, 3.013611%)" offset="0.746094"/><stop stop-opacity="1" stop-color="rgb(62.150574%, 74.273682%, 2.357483%)" offset="0.75"/><stop stop-opacity="1" stop-color="rgb(63.194275%, 75.311279%, 1.699829%)" offset="0.753906"/><stop stop-opacity="1" stop-color="rgb(64.239502%, 76.348877%, 1.043701%)" offset="0.757812"/><stop stop-opacity="1" stop-color="rgb(65.06958%, 77.174377%, 0.521851%)" offset="0.761719"/><stop stop-opacity="1" stop-color="rgb(65.899658%, 77.999878%, 0%)" offset="0.765625"/><stop stop-opacity="1" stop-color="rgb(65.899658%, 77.999878%, 0%)" offset="0.78125"/><stop stop-opacity="1" stop-color="rgb(65.899658%, 77.999878%, 0%)" offset="0.8125"/><stop stop-opacity="1" stop-color="rgb(65.899658%, 77.999878%, 0%)" offset="0.875"/><stop stop-opacity="1" stop-color="rgb(65.899658%, 77.999878%, 0%)" offset="1"/></linearGradient></defs><rect x="-37.5" width="450" fill="#ffffff" y="-37.499999" height="449.999989" fill-opacity="1"/><rect x="-37.5" width="450" fill="#ffffff" y="-37.499999" height="449.999989" fill-opacity="1"/><g clip-path="url(#a5f8f59df6)"><g clip-path="url(#b99d240a39)"><path fill="url(#9b9b9c1662)" d="M 34.089844 0.214844 L 34.089844 374.785156 L 340.839844 374.785156 L 340.839844 0.214844 Z M 34.089844 0.214844 " fill-rule="nonzero"/></g></g><path stroke-linecap="butt" transform="matrix(0.75, 0, 0, 0.75, 0.0000045, 36.140473)" fill="none" stroke-linejoin="miter" d="M 18.468745 140.000213 L 18.468745 22.000205 L 44.067705 22.000205 L 81.682291 96.828335 L 118.765627 22.000205 L 144.369795 22.000205 L 144.369795 140.000213 L 122.802085 140.000213 L 122.802085 58.588749 L 89.916667 123.125211 L 72.916665 123.125211 L 40.031247 58.588749 L 40.031247 140.000213 Z M 198.151049 142.015838 C 187.692715 142.015838 179.630214 138.765837 173.947922 132.260629 C 168.270838 125.734587 165.427088 116.172086 165.427088 103.578335 L 165.427088 56.369999 L 186.869798 56.369999 L 186.869798 101.557502 C 186.869798 108.75021 188.328131 114.260627 191.234382 118.104378 C 194.171882 121.916878 198.781257 123.823128 205.062507 123.823128 C 211.015633 123.823128 215.927092 121.682503 219.796883 117.406461 C 223.692717 113.125211 225.640634 107.172085 225.640634 99.541877 L 225.640634 56.369999 L 247.208344 56.369999 L 247.208344 140.000213 L 228.151051 140.000213 L 226.463551 125.843962 C 223.885425 130.781462 220.156258 134.718962 215.270841 137.656462 C 210.385424 140.562713 204.677091 142.015838 198.151049 142.015838 Z M 303.854181 142.015838 C 296.44793 142.015838 289.927096 140.807504 284.302096 138.396046 C 278.682304 135.979379 274.182304 132.646045 270.807303 128.396045 C 267.432303 124.114795 265.41147 119.161669 264.75522 113.536669 L 286.484388 113.536669 C 287.171888 116.802294 288.994805 119.583545 291.958347 121.890836 C 294.953138 124.198128 298.807305 125.34917 303.526056 125.34917 C 308.244806 125.34917 311.703139 124.385628 313.895848 122.468961 C 316.093765 120.547086 317.187515 118.349169 317.187515 115.880419 C 317.187515 112.286669 315.60939 109.843961 312.458348 108.557502 C 309.302098 107.265835 304.911472 106.005419 299.286472 104.771044 C 295.692722 103.974168 292.04168 103.015835 288.338555 101.890835 C 284.635429 100.765835 281.229179 99.338752 278.130221 97.609585 C 275.057304 95.854376 272.562512 93.604376 270.640637 90.859584 C 268.718762 88.114792 267.760428 84.713751 267.760428 80.65125 C 267.760428 73.245 270.708345 67.015833 276.609387 61.963749 C 282.505221 56.890832 290.807305 54.354374 301.51043 54.354374 C 311.385431 54.354374 319.276057 56.656457 325.17189 61.265832 C 331.072932 65.875208 334.583349 72.229375 335.708349 80.323125 L 315.29689 80.323125 C 314.062515 74.146042 309.395848 71.062708 301.302097 71.062708 C 297.270847 71.062708 294.156263 71.843958 291.958347 73.406458 C 289.765638 74.974167 288.66668 76.9325 288.66668 79.291875 C 288.66668 81.791875 290.302096 83.765834 293.562513 85.218959 C 296.828138 86.672084 301.151055 88.015834 306.531264 89.255418 C 312.375015 90.599168 317.739598 92.093959 322.619807 93.739793 C 327.531266 95.359585 331.442724 97.771043 334.354183 100.984585 C 337.286474 104.192918 338.755225 108.776252 338.755225 114.729378 C 338.8646 119.885628 337.505224 124.552295 334.682308 128.72417 C 331.880224 132.864795 327.833349 136.120004 322.541682 138.479379 C 317.270848 140.838754 311.041681 142.015838 303.854181 142.015838 Z M 369.43231 43.406456 C 365.510435 43.406456 362.270851 42.224164 359.718768 39.864789 C 357.197934 37.505414 355.932309 34.526247 355.932309 30.932497 C 355.932309 27.338747 357.197934 24.39083 359.718768 22.083538 C 362.270851 19.781455 365.510435 18.625205 369.43231 18.625205 C 373.359394 18.625205 376.583352 19.781455 379.104186 22.083538 C 381.656269 24.39083 382.932311 27.338747 382.932311 30.932497 C 382.932311 34.526247 381.656269 37.505414 379.104186 39.864789 C 376.583352 42.224164 373.359394 43.406456 369.43231 43.406456 Z M 358.651059 140.000213 L 358.651059 56.369999 L 380.218769 56.369999 L 380.218769 140.000213 Z M 443.786481 142.015838 C 435.229189 142.015838 427.682314 140.166879 421.151063 136.458546 C 414.651063 132.75542 409.520854 127.583545 405.760437 120.94292 C 402.00002 114.302294 400.119812 106.71896 400.119812 98.182501 C 400.119812 89.651251 402.00002 82.078334 405.760437 75.46375 C 409.520854 68.823125 414.651063 63.651249 421.151063 59.948124 C 427.682314 56.218957 435.229189 54.354374 443.786481 54.354374 C 454.463566 54.354374 463.447941 57.135624 470.744817 62.708541 C 478.0469 68.276249 482.708359 75.948125 484.739609 85.713751 L 461.979191 85.713751 C 460.854191 81.6825 458.630232 78.510625 455.312524 76.208542 C 451.994815 73.90125 448.083357 72.750208 443.583356 72.750208 C 437.630231 72.750208 432.567731 75.000208 428.395855 79.500209 C 424.25523 83.968959 422.182313 90.198126 422.182313 98.182501 C 422.182313 106.166877 424.25523 112.411669 428.395855 116.911669 C 432.567731 121.41167 437.630231 123.66167 443.583356 123.66167 C 448.083357 123.66167 451.994815 122.53667 455.312524 120.28667 C 458.630232 118.036669 460.854191 114.823128 461.979191 110.656461 L 484.739609 110.656461 C 482.708359 120.093961 478.0469 127.682503 470.744817 133.416879 C 463.447941 139.151254 454.463566 142.015838 443.786481 142.015838 Z M 443.786481 142.015838 " stroke="#000000" stroke-width="12.64365" stroke-opacity="1" stroke-miterlimit="4"/><path stroke-linecap="butt" transform="matrix(0.75, 0, 0, 0.75, 0.0000045, 36.140473)" fill="none" stroke-linejoin="miter" d="M 110.395835 342.000226 L 110.395835 224.406468 L 157.604171 224.406468 C 169.802088 224.406468 179.109381 227.239802 185.536465 232.896052 C 191.98959 238.557511 195.218757 245.802303 195.218757 254.635637 C 195.218757 262.021054 193.218757 267.927304 189.229173 272.354388 C 185.265631 276.78668 180.421881 279.781472 174.708339 281.338763 C 181.437506 282.677305 186.984381 286.015847 191.359382 291.343972 C 195.734382 296.677306 197.921882 302.870015 197.921882 309.927307 C 197.921882 319.224183 194.562507 326.89085 187.83334 332.937725 C 181.109381 338.979392 171.57813 342.000226 159.244796 342.000226 Z M 131.890628 273.791888 L 154.406254 273.791888 C 160.447921 273.791888 165.083338 272.396055 168.312505 269.609596 C 171.562505 266.791888 173.192714 262.812721 173.192714 257.672095 C 173.192714 252.75022 171.593755 248.864803 168.39063 246.021053 C 165.218755 243.151261 160.437505 241.718969 154.036462 241.718969 L 131.890628 241.718969 Z M 131.890628 324.526266 L 155.921879 324.526266 C 162.29688 324.526266 167.244797 323.052308 170.770839 320.099183 C 174.29688 317.114807 176.062506 312.932516 176.062506 307.547099 C 176.062506 302.078348 174.218755 297.771056 170.526047 294.625223 C 166.833338 291.484597 161.843755 289.911681 155.552088 289.911681 L 131.890628 289.911681 Z M 255.859386 344.010643 C 247.796885 344.010643 240.536468 342.161684 234.083343 338.474184 C 227.656259 334.781475 222.572925 329.666892 218.822925 323.130433 C 215.078133 316.567932 213.203133 308.968974 213.203133 300.328348 C 213.203133 291.713764 215.104175 284.140847 218.906258 277.604388 C 222.708342 271.041888 227.822926 265.916887 234.244801 262.224179 C 240.697926 258.505429 247.958344 256.646054 256.026052 256.646054 C 263.984386 256.646054 271.171887 258.505429 277.598971 262.224179 C 284.052096 265.916887 289.151055 271.041888 292.901055 277.604388 C 296.645847 284.140847 298.515639 291.713764 298.515639 300.328348 C 298.515639 308.968974 296.645847 316.567932 292.901055 323.130433 C 289.151055 329.666892 284.026054 334.781475 277.515637 338.474184 C 271.03647 342.161684 263.81772 344.010643 255.859386 344.010643 Z M 255.859386 325.349183 C 261.468761 325.349183 266.333345 323.255433 270.463553 319.073141 C 274.619804 314.859599 276.697929 308.614807 276.697929 300.328348 C 276.697929 292.041889 274.619804 285.807514 270.463553 281.625222 C 266.333345 277.41168 261.520845 275.307513 256.026052 275.307513 C 250.31251 275.307513 245.401052 277.41168 241.302093 281.625222 C 237.229176 285.807514 235.187509 292.041889 235.187509 300.328348 C 235.187509 308.614807 237.229176 314.859599 241.302093 319.073141 C 245.401052 323.255433 250.255219 325.349183 255.859386 325.349183 Z M 309.802098 342.000226 L 340.031266 300.328348 L 309.802098 258.65647 L 332.812516 258.65647 L 353.979184 288.229389 L 374.979185 258.65647 L 398.151062 258.65647 L 367.760435 300.328348 L 398.151062 342.000226 L 374.979185 342.000226 L 353.979184 312.427307 L 332.812516 342.000226 Z M 309.802098 342.000226 " stroke="#000000" stroke-width="12.64365" stroke-opacity="1" stroke-miterlimit="4"/><g fill="#c3d7ee" fill-opacity="1"><g transform="translate(5.238285, 141.140466)"><g><path d="M 8.59375 0 L 8.59375 -88.5 L 27.8125 -88.5 L 56.015625 -32.375 L 83.828125 -88.5 L 103.046875 -88.5 L 103.046875 0 L 86.859375 0 L 86.859375 -61.0625 L 62.203125 -12.640625 L 49.4375 -12.640625 L 24.78125 -61.0625 L 24.78125 0 Z M 8.59375 0 "/></g></g></g><g fill="#c3d7ee" fill-opacity="1"><g transform="translate(116.879158, 141.140466)"><g><path d="M 31.734375 1.515625 C 23.898438 1.515625 17.851562 -0.925781 13.59375 -5.8125 C 9.332031 -10.707031 7.203125 -17.875 7.203125 -27.3125 L 7.203125 -62.71875 L 23.265625 -62.71875 L 23.265625 -28.828125 C 23.265625 -23.429688 24.359375 -19.300781 26.546875 -16.4375 C 28.742188 -13.570312 32.203125 -12.140625 36.921875 -12.140625 C 41.390625 -12.140625 45.078125 -13.738281 47.984375 -16.9375 C 50.890625 -20.144531 52.34375 -24.613281 52.34375 -30.34375 L 52.34375 -62.71875 L 68.53125 -62.71875 L 68.53125 0 L 54.234375 0 L 52.984375 -10.625 C 51.035156 -6.914062 48.226562 -3.960938 44.5625 -1.765625 C 40.894531 0.421875 36.617188 1.515625 31.734375 1.515625 Z M 31.734375 1.515625 "/></g></g></g><g fill="#c3d7ee" fill-opacity="1"><g transform="translate(193.750789, 141.140466)"><g><path d="M 34.140625 1.515625 C 28.578125 1.515625 23.6875 0.609375 19.46875 -1.203125 C 15.257812 -3.015625 11.890625 -5.519531 9.359375 -8.71875 C 6.828125 -11.925781 5.304688 -15.632812 4.796875 -19.84375 L 21.109375 -19.84375 C 21.617188 -17.40625 22.988281 -15.320312 25.21875 -13.59375 C 27.457031 -11.863281 30.347656 -11 33.890625 -11 C 37.429688 -11 40.019531 -11.710938 41.65625 -13.140625 C 43.300781 -14.578125 44.125 -16.222656 44.125 -18.078125 C 44.125 -20.773438 42.941406 -22.609375 40.578125 -23.578125 C 38.222656 -24.546875 34.9375 -25.492188 30.71875 -26.421875 C 28.019531 -27.015625 25.28125 -27.734375 22.5 -28.578125 C 19.71875 -29.421875 17.164062 -30.492188 14.84375 -31.796875 C 12.53125 -33.109375 10.65625 -34.796875 9.21875 -36.859375 C 7.789062 -38.921875 7.078125 -41.46875 7.078125 -44.5 C 7.078125 -50.0625 9.289062 -54.738281 13.71875 -58.53125 C 18.144531 -62.332031 24.363281 -64.234375 32.375 -64.234375 C 39.789062 -64.234375 45.707031 -62.503906 50.125 -59.046875 C 54.550781 -55.585938 57.1875 -50.828125 58.03125 -44.765625 L 42.734375 -44.765625 C 41.804688 -49.398438 38.304688 -51.71875 32.234375 -51.71875 C 29.203125 -51.71875 26.863281 -51.125 25.21875 -49.9375 C 23.582031 -48.757812 22.765625 -47.285156 22.765625 -45.515625 C 22.765625 -43.660156 23.984375 -42.1875 26.421875 -41.09375 C 28.867188 -40 32.113281 -38.988281 36.15625 -38.0625 C 40.539062 -37.050781 44.566406 -35.929688 48.234375 -34.703125 C 51.898438 -33.484375 54.828125 -31.671875 57.015625 -29.265625 C 59.210938 -26.867188 60.3125 -23.4375 60.3125 -18.96875 C 60.394531 -15.09375 59.378906 -11.59375 57.265625 -8.46875 C 55.160156 -5.351562 52.128906 -2.910156 48.171875 -1.140625 C 44.210938 0.628906 39.535156 1.515625 34.140625 1.515625 Z M 34.140625 1.515625 "/></g></g></g><g fill="#c3d7ee" fill-opacity="1"><g transform="translate(260.128428, 141.140466)"><g><path d="M 16.9375 -72.453125 C 13.988281 -72.453125 11.566406 -73.335938 9.671875 -75.109375 C 7.773438 -76.878906 6.828125 -79.113281 6.828125 -81.8125 C 6.828125 -84.5 7.773438 -86.707031 9.671875 -88.4375 C 11.566406 -90.164062 13.988281 -91.03125 16.9375 -91.03125 C 19.894531 -91.03125 22.320312 -90.164062 24.21875 -88.4375 C 26.113281 -86.707031 27.0625 -84.5 27.0625 -81.8125 C 27.0625 -79.113281 26.113281 -76.878906 24.21875 -75.109375 C 22.320312 -73.335938 19.894531 -72.453125 16.9375 -72.453125 Z M 8.84375 0 L 8.84375 -62.71875 L 25.03125 -62.71875 L 25.03125 0 Z M 8.84375 0 "/></g></g></g><g fill="#c3d7ee" fill-opacity="1"><g transform="translate(293.886185, 141.140466)"><g><path d="M 38.9375 1.515625 C 32.53125 1.515625 26.882812 0.125 22 -2.65625 C 17.113281 -5.4375 13.257812 -9.3125 10.4375 -14.28125 C 7.613281 -19.257812 6.203125 -24.953125 6.203125 -31.359375 C 6.203125 -37.765625 7.613281 -43.453125 10.4375 -48.421875 C 13.257812 -53.398438 17.113281 -57.28125 22 -60.0625 C 26.882812 -62.84375 32.53125 -64.234375 38.9375 -64.234375 C 46.945312 -64.234375 53.691406 -62.144531 59.171875 -57.96875 C 64.648438 -53.800781 68.148438 -48.050781 69.671875 -40.71875 L 52.59375 -40.71875 C 51.75 -43.75 50.082031 -46.128906 47.59375 -47.859375 C 45.113281 -49.585938 42.1875 -50.453125 38.8125 -50.453125 C 34.34375 -50.453125 30.550781 -48.765625 27.4375 -45.390625 C 24.320312 -42.015625 22.765625 -37.335938 22.765625 -31.359375 C 22.765625 -25.367188 24.320312 -20.6875 27.4375 -17.3125 C 30.550781 -13.945312 34.34375 -12.265625 38.8125 -12.265625 C 42.1875 -12.265625 45.113281 -13.109375 47.59375 -14.796875 C 50.082031 -16.484375 51.75 -18.882812 52.59375 -22 L 69.671875 -22 C 68.148438 -14.914062 64.648438 -9.222656 59.171875 -4.921875 C 53.691406 -0.628906 46.945312 1.515625 38.9375 1.515625 Z M 38.9375 1.515625 "/></g></g></g><g fill="#c3d7ee" fill-opacity="1"><g transform="translate(74.214843, 292.640456)"><g><path d="M 8.5625 0 L 8.5625 -88.203125 L 43.96875 -88.203125 C 53.125 -88.203125 60.117188 -86.078125 64.953125 -81.828125 C 69.785156 -77.585938 72.203125 -72.148438 72.203125 -65.515625 C 72.203125 -59.972656 70.707031 -55.539062 67.71875 -52.21875 C 64.738281 -48.90625 61.109375 -46.660156 56.828125 -45.484375 C 61.867188 -44.472656 66.023438 -41.972656 69.296875 -37.984375 C 72.578125 -33.992188 74.21875 -29.351562 74.21875 -24.0625 C 74.21875 -17.09375 71.695312 -11.335938 66.65625 -6.796875 C 61.613281 -2.265625 54.472656 0 45.234375 0 Z M 24.703125 -51.15625 L 41.578125 -51.15625 C 46.117188 -51.15625 49.601562 -52.203125 52.03125 -54.296875 C 54.46875 -56.398438 55.6875 -59.382812 55.6875 -63.25 C 55.6875 -66.945312 54.488281 -69.863281 52.09375 -72 C 49.707031 -74.144531 46.117188 -75.21875 41.328125 -75.21875 L 24.703125 -75.21875 Z M 24.703125 -13.109375 L 42.71875 -13.109375 C 47.5 -13.109375 51.210938 -14.21875 53.859375 -16.4375 C 56.503906 -18.664062 57.828125 -21.796875 57.828125 -25.828125 C 57.828125 -29.941406 56.441406 -33.175781 53.671875 -35.53125 C 50.898438 -37.882812 47.164062 -39.0625 42.46875 -39.0625 L 24.703125 -39.0625 Z M 24.703125 -13.109375 "/></g></g><g transform="translate(153.720838, 292.640456)"><g><path d="M 38.171875 1.515625 C 32.128906 1.515625 26.691406 0.128906 21.859375 -2.640625 C 17.023438 -5.410156 13.203125 -9.253906 10.390625 -14.171875 C 7.578125 -19.085938 6.171875 -24.78125 6.171875 -31.25 C 6.171875 -37.71875 7.597656 -43.40625 10.453125 -48.3125 C 13.304688 -53.226562 17.148438 -57.070312 21.984375 -59.84375 C 26.816406 -62.625 32.253906 -64.015625 38.296875 -64.015625 C 44.265625 -64.015625 49.660156 -62.625 54.484375 -59.84375 C 59.316406 -57.070312 63.140625 -53.226562 65.953125 -48.3125 C 68.773438 -43.40625 70.1875 -37.71875 70.1875 -31.25 C 70.1875 -24.78125 68.773438 -19.085938 65.953125 -14.171875 C 63.140625 -9.253906 59.296875 -5.410156 54.421875 -2.640625 C 49.554688 0.128906 44.140625 1.515625 38.171875 1.515625 Z M 38.171875 -12.46875 C 42.378906 -12.46875 46.035156 -14.039062 49.140625 -17.1875 C 52.242188 -20.34375 53.796875 -25.03125 53.796875 -31.25 C 53.796875 -37.46875 52.242188 -42.148438 49.140625 -45.296875 C 46.035156 -48.441406 42.421875 -50.015625 38.296875 -50.015625 C 34.015625 -50.015625 30.34375 -48.441406 27.28125 -45.296875 C 24.21875 -42.148438 22.6875 -37.46875 22.6875 -31.25 C 22.6875 -25.03125 24.21875 -20.34375 27.28125 -17.1875 C 30.34375 -14.039062 33.972656 -12.46875 38.171875 -12.46875 Z M 38.171875 -12.46875 "/></g></g></g><g fill="#c3d7ee" fill-opacity="1"><g transform="translate(230.076818, 292.640456)"><g><path d="M 2.265625 0 L 24.953125 -31.25 L 2.265625 -62.5 L 19.53125 -62.5 L 35.40625 -40.3125 L 51.15625 -62.5 L 68.546875 -62.5 L 45.734375 -31.25 L 68.546875 0 L 51.15625 0 L 35.40625 -22.171875 L 19.53125 0 Z M 2.265625 0 "/></g></g></g></svg>